inDegrees=yes
name=ik_S53_A09_T01
DataType=double
version=3
OpenSimVersion=4.3-2021-08-27-4bc7ad9
endheader
time	pelvis_tilt	pelvis_list	pelvis_rotation	pelvis_tx	pelvis_ty	pelvis_tz	hip_flexion_r	hip_adduction_r	hip_rotation_r	knee_angle_r	knee_angle_r_beta	ankle_angle_r	subtalar_angle_r	mtp_angle_r	hip_flexion_l	hip_adduction_l	hip_rotation_l	knee_angle_l	knee_angle_l_beta	ankle_angle_l	subtalar_angle_l	mtp_angle_l	lumbar_extension	lumbar_bending	lumbar_rotation	arm_flex_r	arm_add_r	arm_rot_r	elbow_flex_r	pro_sup_r	wrist_flex_r	wrist_dev_r	arm_flex_l	arm_add_l	arm_rot_l	elbow_flex_l	pro_sup_l	wrist_flex_l	wrist_dev_l
5.759999999999965	-7.305495223356356	-3.273998903555246	26.27590490057081	0	0.9399999999999999	0	43.37233562845452	-11.05754745266897	-10.85804633671935	54.11141835108142	0.9444224131504517	0	0	0	43.37233562845452	-11.05754745266897	-10.85804633671935	54.11141835108142	0.9444224131504517	0	0	0	-4.918844983026539	-1.911786511674344	-2.938439394407522	49.33421817570324	9.776549649930852	32.12545130971635	45.47269368579892	105.8869097206603	0	0	60.77764097721327	-15.04480587012164	2.013014185904696	16.84780213642352	107.3424029123763	0	0
5.779999999999965	-7.301228103399721	-3.292398416311236	26.29160651704545	0	0.9399999999999999	0	43.37267881645433	-11.05678868440491	-10.85764810514521	54.11154696817419	0.9444246579421949	0	0	0	43.37267881645433	-11.05678868440491	-10.85764810514521	54.11154696817419	0.9444246579421949	0	0	0	-4.922028564226661	-1.933194563695566	-2.909084693957622	49.36360583474978	9.808825573176971	31.88228550851394	45.42576096599381	105.9442550523998	0	0	60.87409805822537	-15.02527033681723	1.977064780569837	16.87888653171927	107.4548227586598	0	0
5.799999999999964	-7.317165342359082	-3.299246180800995	26.36415990841266	0	0.9399999999999999	0	43.37308739630367	-11.05586479102763	-10.85716680697957	54.1116967904709	0.9444272728345654	0	0	0	43.37308739630367	-11.05586479102763	-10.85716680697957	54.1116967904709	0.9444272728345654	0	0	0	-4.940688292304456	-1.929804983350674	-2.927177258005538	49.43579247325061	9.779759218233089	31.88334740411335	45.31082551628683	105.9088463175299	0	0	61.04997499936515	-14.93287774579982	1.500597073743409	17.1171318513223	107.5670434251401	0	0
5.819999999999964	-7.311168919363569	-3.304112029146674	26.39556298777891	0	0.9399999999999999	0	43.3734177697708	-11.05512980339059	-10.85678173664882	54.11181969076627	0.9444294178493713	0	0	0	43.3734177697708	-11.05512980339059	-10.85678173664882	54.11181969076627	0.9444294178493713	0	0	0	-4.938069559063526	-1.935686043524542	-2.935491194008319	49.45889130462508	9.794352687030488	31.95603515140233	45.27429403406099	105.8307927477547	0	0	61.03674677118961	-14.87886177212599	1.477920463188625	17.5453959052543	107.208972850515	0	0
5.839999999999963	-7.312314041364143	-3.30254890241422	26.42941282930735	0	0.9399999999999999	0	43.37377706075672	-11.05433398541324	-10.85636415914005	54.11195386855644	0.9444317596935928	0	0	0	43.37377706075672	-11.05433398541324	-10.85636415914005	54.11195386855644	0.9444317596935928	0	0	0	-4.939153831552758	-1.932456337381797	-2.944545238928532	49.49099908021749	9.804395988820891	32.05396891559543	45.2280241378656	105.7425468179784	0	0	60.90027133983	-14.75560824535238	1.399981357329367	18.04462860829318	106.8848907382572	0	0
5.859999999999963	-7.312116097771683	-3.289833927992307	26.27801180203166	0	0.9399999999999999	0	43.37428905950892	-11.05321720106885	-10.85577503547737	54.11214767890038	0.9444351423222189	0	0	0	43.37428905950892	-11.05321720106885	-10.85577503547737	54.11214767890038	0.9444351423222189	0	0	0	-4.927606735593273	-1.93709575632048	-2.792803909512739	49.50618145950254	9.813344688690073	32.14429667153125	45.08888602043923	105.5650453184877	0	0	60.55084711750789	-14.59732535339327	1.510702844369578	19.28938563851934	105.6423445204278	0	0
5.879999999999963	-7.323303318316983	-3.287039694221277	26.21560591214458	0	0.9399999999999999	0	43.37475407013482	-11.05218852183099	-10.85523494530228	54.11232139065698	0.9444381741643211	0	0	0	43.37475407013482	-11.05218852183099	-10.85523494530228	54.11232139065698	0.9444381741643211	0	0	0	-4.933644256028447	-1.93620437615356	-2.732686314584061	49.55966000805341	9.824929733144456	32.2267988342513	44.9600106443403	105.2309996680169	0	0	60.52906974335626	-14.41492979294914	1.449670024102838	20.66273141586649	104.5856123348635	0	0
5.899999999999962	-7.295708063986452	-3.280808005481584	25.97665193264526	0	0.9399999999999999	0	43.37550010495689	-11.05051915704668	-10.85436167404499	54.11259682488248	0.9444429813984287	0	0	0	43.37550010495689	-11.05051915704668	-10.85436167404499	54.11259682488248	0.9444429813984287	0	0	0	-4.896667139900484	-1.965085016155791	-2.531457911439319	49.50955600182134	9.924140548854705	32.30649204753436	44.84911611900925	104.9379719640589	0	0	59.57855751564434	-14.13012914163162	1.661236086689363	23.04753802836309	103.0469242515816	0	0
5.919999999999962	-7.28264876065714	-3.275319467988346	25.80885543838885	0	0.9399999999999999	0	43.37622947692373	-11.0488904153351	-10.85350891300492	54.11286639093611	0.9444476862136161	0	0	0	43.37622947692373	-11.0488904153351	-10.85350891300492	54.11286639093611	0.9444476862136161	0	0	0	-4.874020747317006	-1.983269494486841	-2.36802167582069	49.47292027288785	9.940521502781309	32.31478676485735	44.80431913911661	104.725934372421	0	0	59.10336594197755	-13.80328398661647	1.546114462692033	25.28763399316643	102.1484719897101	0	0
5.939999999999961	-7.267570152560832	-3.255210173055366	25.82010137605133	0	0.9399999999999999	0	43.3767928044641	-11.04763917281328	-10.8528525969604	54.11307560991607	0.9444513377736741	0	0	0	43.3767928044641	-11.04763917281328	-10.8528525969604	54.11307560991607	0.9444513377736741	0	0	0	-4.853344150854562	-1.969627961636923	-2.380367451977495	49.53067479154714	10.03153651210245	32.30430169068082	44.60032216031364	104.5210519890588	0	0	58.7784737178503	-13.76621445977594	1.428217317033635	25.54501229094649	102.2485540777009	0	0
5.959999999999961	-7.257191420949884	-3.254302883872383	25.55360655163499	0	0.9399999999999999	0	43.37769227641754	-11.04562132154118	-10.85179739609144	54.11340605879686	0.9444571051946534	0	0	0	43.37769227641754	-11.04562132154118	-10.85179739609144	54.11340605879686	0.9444571051946534	0	0	0	-4.827230015470061	-1.999483409365546	-2.097353808608311	49.51276674981796	10.02728849693871	32.28523553589405	44.57593427215294	104.3045649591477	0	0	58.35006009164172	-13.10143078130792	1.405712702644946	29.78349336458723	101.4143778138061	0	0
5.97999999999996	-7.259129284788888	-3.250167817754295	25.46125863578711	0	0.9399999999999999	0	43.37824426932972	-11.04438497482202	-10.85115041960077	54.113609002431	0.9444606472292651	0	0	0	43.37824426932972	-11.04438497482202	-10.85115041960077	54.113609002431	0.9444606472292651	0	0	0	-4.821511232010622	-2.0080809737669	-1.972310948159801	49.63233483197314	10.10672662270889	32.13144484620523	44.40289370778781	104.3903230161524	0	0	57.86716175431081	-12.68812170222998	1.489826626280774	31.12581391806743	101.4294695995518	0	0
5.99999999999996	-7.251976877678176	-3.246520961574932	25.18012257492619	0	0.9399999999999999	0	43.3789692717376	-11.04276359918946	-10.85030136981023	54.11387570328531	0.9444653020372907	0	0	0	43.3789692717376	-11.04276359918946	-10.85030136981023	54.11387570328531	0.9444653020372907	0	0	0	-4.800192141031365	-2.035890853783304	-1.676566410501243	49.6803811697234	10.20198918952597	32.06597151313092	44.29079621962111	104.4534372276833	0	0	57.50771543072877	-11.98468497684906	1.657755226078905	35.21932476810248	102.5506253365016	0	0
6.01999999999996	-7.247500458624414	-3.222610676108182	25.17802426830799	0	0.9399999999999999	0	43.38295260705966	-11.03567937778257	-10.84616349557929	54.11538566191199	0.9444916557868951	0	0	0	43.38295260705966	-11.03567937778257	-10.84616349557929	54.11538566191199	0.9444916557868951	0	0	0	-4.791439012686832	-2.012933070114084	-1.665169919740087	49.64819916157731	10.18044081381883	32.09576979006857	44.19169421687752	104.034468035361	0	0	57.44740143243504	-11.93288151284552	1.599872703165696	35.27419826009608	102.6169477448626	0	0
6.039999999999959	-7.24903957062544	-3.219472246247429	24.88939512552782	0	0.9399999999999999	0	43.38389229113817	-11.03357788579201	-10.84506231030054	54.11572986622618	0.9444976632854772	0	0	0	43.38389229113817	-11.03357788579201	-10.84506231030054	54.11572986622618	0.9444976632854772	0	0	0	-4.779827144617014	-2.03800253021922	-1.386326830128085	49.69481662622763	10.26391044413969	32.0637826416914	44.07677831284361	104.0965778891707	0	0	56.98123398861568	-11.14582196515317	2.272331694471276	38.74900152662047	104.7313947859541	0	0
6.059999999999959	-7.250534940205156	-3.206389082035163	24.76399142238181	0	0.9399999999999999	0	43.38474382008881	-11.03167357453692	-10.84406422198372	54.11604144670915	0.9445031013907901	0	0	0	43.38474382008881	-11.03167357453692	-10.84406422198372	54.11604144670915	0.9445031013907901	0	0	0	-4.770258263514637	-2.039271177247953	-1.247423809842801	49.69547225253751	10.22760020361354	32.0496444387079	43.96319283533026	103.8370458328303	0	0	56.7981800909288	-10.70043052243233	2.847622885970584	40.22114153770351	105.7007349090679	0	0
6.079999999999958	-7.234052016068299	-3.175964118500223	24.66129567541543	0	0.9399999999999999	0	43.38554251913629	-11.02990165843546	-10.84313277820943	54.11633555867561	0.9445082346129744	0	0	0	43.38554251913629	-11.02990165843546	-10.84313277820943	54.11633555867561	0.9445082346129744	0	0	0	-4.73919442593697	-2.027220422933136	-1.154900082495322	49.72716056444371	10.28493540884401	32.07018189803117	43.83302702052147	103.8408964166921	0	0	56.66538293911445	-10.48344128676802	2.896494686459566	41.61036584729072	106.5340695650331	0	0
6.099999999999958	-7.238971149315481	-3.165684488359439	24.55008292926562	0	0.9399999999999999	0	43.38626880175291	-11.02828167723004	-10.84228262171273	54.1166014409779	0.9445128751345722	0	0	0	43.38626880175291	-11.02828167723004	-10.84228262171273	54.1166014409779	0.9445128751345722	0	0	0	-4.734524462505192	-2.027178067209497	-1.039425467172172	49.78986458011432	10.31195021978078	32.08192454091084	43.69600440798996	103.7128378660897	0	0	56.49982928926095	-10.06225187977248	3.566135770886961	42.81464000082546	106.663376236966	0	0
